<svg xmlns="http://www.w3.org/2000/svg" data-name="Layer 1" viewBox="0 0 512 512"><path fill="#1e1f27" d="M304.68262,328.77686a7.49974,7.49974,0,0,0,7.5,7.5h22.06054A16.0805,16.0805,0,0,1,320.04,344.84814h-7.85742a7.5003,7.5003,0,0,0-5.42383,12.68018l31.42871,32.90527a7.50014,7.50014,0,1,0,10.84766-10.36035l-20.457-21.418A31.1874,31.1874,0,0,0,350.188,336.27686h5.20947a7.5,7.5,0,0,0,0-15h-5.20679a30.89567,30.89567,0,0,0-3.56787-8.57129h8.77466a7.5,7.5,0,0,0,0-15H312.18262a7.5,7.5,0,0,0,0,15H320.04a16.08048,16.08048,0,0,1,14.20312,8.57129H312.18262A7.49974,7.49974,0,0,0,304.68262,328.77686ZM474.5,235.75977H285.61792l-5.864-57.8169a72.45458,72.45458,0,0,0-8.085-26.4873l-3.26563-6.14551-.001.00049-.12109-.23926c-.01563-.03223-.03223-.064-.04785-.0957l-27.42578-54.2417a27.27862,27.27862,0,0,0-23.16211-14.94776,7.8983,7.8983,0,0,0-.833.01026l-11.72754.7959q-52.70947,3.57714-105.416,7.14453L84.041,84.80176c-2.51172-.07764-5.11231-.20166-7.73633-.36719-1.83228-.11633-3.70288-.26074-5.667-.43121a16.46515,16.46515,0,0,0-12.65137-14.288L9.32227,57.52539A7.50013,7.50013,0,0,0,5.67773,72.07617l48.7334,12.20752c.05469.01367.10938.02686.165.03906A1.501,1.501,0,0,1,55.707,86.11719L31.43262,193.20312a1.49849,1.49849,0,0,1-1.79395,1.13086L9.1582,189.69141a7.50005,7.50005,0,1,0-3.3164,14.6289l20.48144,4.64258a16.61975,16.61975,0,0,0,3.67871.41406A16.51459,16.51459,0,0,0,46.06152,196.519l.12036-.5307,14.41871,9.96381a47.15339,47.15339,0,0,0,11.66992,5.86621l20.08984,6.84894a19.86472,19.86472,0,0,0-8.63769,17.99579c.00976.19677.02734.395.05273.59716a19.91276,19.91276,0,0,0,19.8291,18.04688c.2334,0,.46973-.00391.70508-.01221q6.56726-.22741,13.13892-.45923A20.98289,20.98289,0,0,0,143.167,283.7666l12.41309-4.24542v137.679a37.54226,37.54226,0,0,0,37.5,37.5H474.5a37.54227,37.54227,0,0,0,37.5-37.5V273.25977A37.54226,37.54226,0,0,0,474.5,235.75977Zm-370.71094,4.54394a4.94589,4.94589,0,0,1-5.085-4.5083c-.00488-.05762-.01074-.11523-.01758-.17334-.001-.01709-.002-.03467-.0039-.05225a4.92234,4.92234,0,0,1,3.69629-5.20947c1.36718-.3457,3.8623-1.13428,7.80957-2.3916,1.61938-.516,3.47876-1.10834,4.91137-1.54913l25.79859,8.7951-5.76514,3.994Q119.45508,239.76377,103.78906,240.30371Zm53.16626,22.89386-18.65942,6.382a5.994,5.994,0,0,1-7.75781-4.25879,6.05706,6.05706,0,0,1,2.5332-6.43555l7.863-5.44757a7.49257,7.49257,0,0,0,2.12011-1.46893L157.12573,242.22l8.9148,5.07562A37.34519,37.34519,0,0,0,156.95532,263.19757Zm.52515-38.03595a7.49758,7.49758,0,0,0-1.29-.58105L117.856,211.5116c-.03589-.01319-.07276-.02448-.10889-.03711L77.0918,197.61426a32.18752,32.18752,0,0,1-7.96778-4.00488L51.74414,181.59961a7.49884,7.49884,0,0,0-2.07349-1.0025L68.20654,98.82684c.14893.02228.2959.04926.44776.06281,2.34179.209,4.5332.37744,6.70215.51465,2.918.18457,5.8125.31982,8.60253.40185.22852.00733.46485.00342.69727-.01172l16.0293-1.09228q52.7124-3.56324,105.415-7.144l11.26171-.76465a12.2668,12.2668,0,0,1,10.05469,6.6997l27.42578,54.24122.24024.47119c.02441.04785.04883.0957.07422.14355l3.26269,6.13965a57.48283,57.48283,0,0,1,6.41309,20.99561l5.70752,56.27539H252.17822l-5.06494-41.10743a7.49773,7.49773,0,0,0-3.34473-5.36425l-8.811-5.74878c-.04858-.03333-.09253-.07093-.14209-.10327l-23.07227-15.042a22.10805,22.10805,0,0,0-31.35351,7.71436,21.907,21.907,0,0,0-2.53711,7.29346c-.06543.37695-.11719.7666-.15332,1.14453a21.42131,21.42131,0,0,0-.12891,2.353A21.918,21.918,0,0,0,186,204.27246l56.86377,44.77026.02.01557,11.90527,9.37335a9.52451,9.52451,0,0,1,2.8916,3.72754,9.79573,9.79573,0,0,1,.59375,5.93066,9.69239,9.69239,0,0,1-.74487,2.14569c-.01587.03614-.03589.0702-.051.10663a9.647,9.647,0,0,1-8.67872,5.35706,9.55274,9.55274,0,0,1-4.78027-1.26807ZM267.708,281.90674q.47168-.563.90527-1.147H445.96582A29.61,29.61,0,0,0,467,301.794V388.666a29.61,29.61,0,0,0-21.03418,21.03418H221.61426A29.61,29.61,0,0,0,200.58008,388.666V301.794a29.61,29.61,0,0,0,21.03418-21.03418h3.20337l11.782,6.708a24.69791,24.69791,0,0,0,31.1084-5.561ZM235.6499,224.27136l-40.38916-31.79919a7.019,7.019,0,0,1-2.69043-5.57276,6.54879,6.54879,0,0,1,.041-.73828c.00781-.063.01172-.11377.01758-.17675.01171-.064.02246-.12793.03222-.19239a6.9468,6.9468,0,0,1,.81348-2.3501,7.10795,7.10795,0,0,1,10.07812-2.481l6.41065,4.17938c.00952.00641.01807.014.02783.02032l22.66113,14.78516ZM497,417.2002a22.52555,22.52555,0,0,1-22.5,22.5H193.08008a22.52555,22.52555,0,0,1-22.5-22.5V273.25977a22.54816,22.54816,0,0,1,9.2041-18.13935l28.10889,16.00348a7.48734,7.48734,0,0,0-.313,2.13587,14.51669,14.51669,0,0,1-14.5,14.5,7.49974,7.49974,0,0,0-7.5,7.5V395.2002a7.49974,7.49974,0,0,0,7.5,7.5,14.51669,14.51669,0,0,1,14.5,14.5,7.49974,7.49974,0,0,0,7.5,7.5H452.5a7.49974,7.49974,0,0,0,7.5-7.5,14.51669,14.51669,0,0,1,14.5-14.5,7.49974,7.49974,0,0,0,7.5-7.5V295.25977a7.49974,7.49974,0,0,0-7.5-7.5,14.51669,14.51669,0,0,1-14.5-14.5,7.49974,7.49974,0,0,0-7.5-7.5H273.47241a24.7476,24.7476,0,0,0-2.0437-9.59766,24.34892,24.34892,0,0,0-3.24756-5.40234H474.5a22.52554,22.52554,0,0,1,22.5,22.5Z"/></svg>