<svg xmlns="http://www.w3.org/2000/svg" viewBox="0 0 64 64"><g data-name="delivery time-pending-waiting-package-truck-send-delivery-logistic"><path d="M48.9,28.206A13.1,13.1,0,1,0,35.8,15.1,13.118,13.118,0,0,0,48.9,28.206Zm0-24.329A11.227,11.227,0,1,1,37.672,15.1,11.24,11.24,0,0,1,48.9,3.877Z"/><path d="M57.275,27.851a.938.938,0,0,0-.938.938v23.12H53.465a5.7,5.7,0,0,0-2.834-2.2v-7.6a.937.937,0,0,0-.938-.938H45.576v-9.8a.937.937,0,0,0-.937-.938H34.529a.937.937,0,0,0-.937.938v9.8H29.474a.937.937,0,0,0-.937.938v9.8H22.83V25.352h13.2a.938.938,0,0,0,0-1.875H21.892a.937.937,0,0,0-.937.937V29.8c-.024,0-.045-.007-.069-.007H16.823A14.84,14.84,0,0,0,2,44.618v7.223a1.945,1.945,0,0,0,1.944,1.943H6.572A5.643,5.643,0,0,0,9.55,60.123H2.938a.938.938,0,1,0,0,1.876H57.275a.938.938,0,0,0,0-1.876H51.3a5.643,5.643,0,0,0,2.978-6.339h3a.937.937,0,0,0,.938-.937V28.789A.938.938,0,0,0,57.275,27.851Zm-8.52,21.532h-.01a5.658,5.658,0,0,0-4.222,1.9h-4V43.043h8.233ZM35.467,32.3H43.7v8.233H35.467Zm-5.055,10.74h8.234v8.235H30.412ZM3.944,51.909a.068.068,0,0,1-.069-.068V44.618A12.962,12.962,0,0,1,16.823,31.671h4.063a.069.069,0,0,1,.069.068v20.1a.068.068,0,0,1-.069.068H16.818a5.67,5.67,0,0,0-9.438,0ZM8.3,55.058a3.77,3.77,0,0,1,.312-1.5.919.919,0,0,0,.321-.591A3.794,3.794,0,1,1,8.3,55.058Zm6.351,5.065a5.637,5.637,0,0,0,2.977-6.339h3.26a1.933,1.933,0,0,0,.6-.1.927.927,0,0,0,.409.1H43.218A5.643,5.643,0,0,0,46.2,60.123Zm34.1-1.264a3.8,3.8,0,1,1,3.8-3.8A3.8,3.8,0,0,1,48.745,58.859Z"/><path d="M16.522 44.939A.937.937 0 0 0 17.46 44V35.788a.938.938 0 0 0-.938-.938 8.846 8.846 0 0 0-8.836 8.835.9.9 0 0 1 0 .316.937.937 0 0 0 .938.938zm-.938-8.15v6.275H9.589A6.973 6.973 0 0 1 15.584 36.789zM48.9 16.041h6.758a.938.938 0 1 0 0-1.876h-5.82V8.346a.938.938 0 1 0-1.875 0V15.1A.937.937 0 0 0 48.9 16.041z"/></g></svg>