<svg xmlns="http://www.w3.org/2000/svg" viewBox="0 0 25 25"><path fill="#2b3344" d="M17.787,7.78a.446.446,0,0,0-.059-.37.367.367,0,0,0-.31-.13H7.347a1.033,1.033,0,0,0-.909.74L6.2,9h7.34a.5.5,0,0,1,0,1H5.957l-.24,1h2.82a.5.5,0,0,1,0,1H5.467L3.988,18.1a.413.413,0,0,0,.049.37.367.367,0,0,0,.31.13h.781a2.008,2.008,0,0,1,1.73-1.12A1.315,1.315,0,0,1,8.217,18.6h6.93l2.091-8.58Zm-5.179,5.44-1,2a.507.507,0,0,1-.451.28.576.576,0,0,1-.219-.05.506.506,0,0,1-.231-.67l.64-1.28h-1.19a.489.489,0,0,1-.419-.24.508.508,0,0,1-.031-.48l1-2a.5.5,0,1,1,.9.44l-.641,1.28h1.19a.506.506,0,0,1,.43.24A.481.481,0,0,1,12.608,13.22ZM7.167,18.6a.428.428,0,0,1,.051.375,1.02,1.02,0,0,1-.906.738A.382.382,0,0,1,6,19.592a.434.434,0,0,1-.051-.376,1.022,1.022,0,0,1,.907-.738A.382.382,0,0,1,7.167,18.6Zm12.316,0a.431.431,0,0,1,.05.375,1.021,1.021,0,0,1-.906.738.387.387,0,0,1-.31-.125.437.437,0,0,1-.051-.376h0a1.024,1.024,0,0,1,.906-.738A.386.386,0,0,1,19.483,18.6Zm3.428-4.295-.865,3.55a1.025,1.025,0,0,1-.907.739h-.61a1.335,1.335,0,0,0-.26-.612,1.374,1.374,0,0,0-1.1-.508,2.015,2.015,0,0,0-1.731,1.12H16.177l1.939-7.957h2.039a1.242,1.242,0,0,1,1.024.458l1.549,2.047A1.364,1.364,0,0,1,22.911,14.309ZM6.2,9l-.24,1H2.537a.5.5,0,1,1,0-1Zm-.48,2-.25,1H3.537a.5.5,0,1,1,0-1Zm-.68-5.5a.5.5,0,0,1,.5-.5h6a.5.5,0,0,1,0,1h-6A.5.5,0,0,1,5.037,5.5Z" data-name="Fast Shipping"/></svg>