<svg xmlns="http://www.w3.org/2000/svg" data-name="Layer 1" viewBox="0 0 64 64"><path d="M21,32a1,1,0,0,1-.71-.29l-3.56-3.56-2.41.8A1,1,0,0,1,13,28V21a1,1,0,0,1,.64-.93l21-8a1,1,0,0,1,.71,1.87L15,21.69v4.92l1.68-.56a1,1,0,0,1,1,.24L20,28.59V24a1,1,0,0,1,.62-.93l21-8.59a1,1,0,0,1,.76,1.85L22,24.67V31a1,1,0,0,1-1,1Z"/><path d="M28 57a1 1 0 01-.34-.06l-22-8A1 1 0 015 48V18a1 1 0 012 0V47.3l20 7.27V26a1 1 0 012 0V56a1 1 0 01-1 1zM50 26a1 1 0 01-1-1V18a1 1 0 012 0v7A1 1 0 0150 26z"/><path d="M28 57a1 1 0 01-.34-1.94L49 47.3V45a1 1 0 012 0v3a1 1 0 01-.66.94l-22 8A1 1 0 0128 57zM28 27a1 1 0 01-.34-.06l-22-8a1 1 0 010-1.88l22-8a1 1 0 01.68 0l22 8a1 1 0 010 1.88l-22 8A1 1 0 0128 27zM8.93 18L28 24.94 47.07 18 28 11.06zM33 49.55a1 1 0 01-.34-1.94l4-1.45A1 1 0 0137.34 48l-4 1.45A1 1 0 0133 49.55zM33 45.55a1 1 0 01-.34-1.94l2-.73a1 1 0 01.68 1.88l-2 .73A1 1 0 0133 45.55z"/><path d="M48.5,45a10.5,10.5,0,1,1,8.29-16.95,1,1,0,0,1-1.58,1.23A8.5,8.5,0,1,0,52.53,42a1,1,0,1,1,.95,1.76A10.53,10.53,0,0,1,48.5,45Z"/><path d="M56,30H52a1,1,0,0,1,0-2h3V25a1,1,0,0,1,2,0v4A1,1,0,0,1,56,30Z"/></svg>