<svg xmlns="http://www.w3.org/2000/svg" width="512" height="512" viewBox="0 0 512 512"><path fill="#FFC035" d="M93.82 34.06l45.95 47.52-35.48 36.69zM372.23 81.59l-.01-.01 45.96-47.52-10.47 84.21zM418.18 129.1H93.82L80.25 477.94h351.5L418.18 129.1zm-77.62 84.7v34.93c0 46.63-37.93 84.56-84.56 84.56s-84.56-37.93-84.56-84.56V213.8c-9.88-1.87-17.36-10.55-17.36-20.97 0-11.8 9.57-21.36 21.36-21.36s21.36 9.56 21.36 21.36c0 10.42-7.48 19.1-17.36 20.97v34.93c0 42.22 34.34 76.56 76.56 76.56 42.21 0 76.56-34.34 76.56-76.56V213.8c-9.88-1.87-17.36-10.55-17.36-20.97 0-11.8 9.57-21.36 21.36-21.36s21.36 9.56 21.36 21.36c0 10.42-7.48 19.1-17.36 20.97z"/><path fill="#C98B0E" d="M418.18 34.06l-45.96 47.52.01.01-3.06 47.51H142.83l-3.06-47.52-45.95-47.52z"/><path d="M139.77 94l230.76 13.97-1.36 21.13H142.83z" opacity=".1"/><path fill="#99650B" d="M407.71 118.27l10.47 10.83h-49.01l3.06-47.51z"/><path fill="#ECEFF0" d="M336.56 171.47c11.79 0 21.36 9.56 21.36 21.36 0 10.42-7.48 19.1-17.36 20.97v-20.97c0-2.21-1.79-4-4-4s-4 1.79-4 4v20.97c-9.88-1.87-17.36-10.55-17.36-20.97 0-11.8 9.57-21.36 21.36-21.36z"/><path fill="#526471" d="M340.56 192.83v20.97c-1.3.25-2.63.38-4 .38s-2.7-.13-4-.38v-20.97c0-2.21 1.79-4 4-4s4 1.79 4 4z"/><path fill="#526471" d="M336.56 214.18c1.37 0 2.7-.13 4-.38v34.93c0 46.63-37.93 84.56-84.56 84.56s-84.56-37.93-84.56-84.56V213.8c1.3.25 2.63.38 4 .38s2.7-.13 4-.38v34.93c0 42.22 34.34 76.56 76.56 76.56 42.21 0 76.56-34.34 76.56-76.56V213.8c1.3.25 2.63.38 4 .38z"/><path fill="#ECEFF0" d="M175.44 171.47c11.79 0 21.36 9.56 21.36 21.36 0 10.42-7.48 19.1-17.36 20.97v-20.97c0-2.21-1.79-4-4-4s-4 1.79-4 4v20.97c-9.88-1.87-17.36-10.55-17.36-20.97 0-11.8 9.57-21.36 21.36-21.36z"/><path fill="#526471" d="M179.44 192.83v20.97c-1.3.25-2.63.38-4 .38s-2.7-.13-4-.38v-20.97c0-2.21 1.79-4 4-4s4 1.79 4 4z"/><path fill="#99650B" d="M139.77 81.58l3.06 47.52H93.82l10.47-10.83z"/><g fill="none"><path d="M418.18 129.1l13.57 348.84H80.25L93.82 129.1M418.18 129.1H93.82M93.82 34.06h324.36M93.82 34.06l45.95 47.52"/><path d="M139.77 81.58l-35.48 36.69-10.47 10.83M418.18 129.1l-10.47-10.83-35.48-36.68-.01-.01M372.22 81.58l45.96-47.52M171.44 213.8c-9.88-1.87-17.36-10.55-17.36-20.97 0-11.8 9.57-21.36 21.36-21.36s21.36 9.56 21.36 21.36c0 10.42-7.48 19.1-17.36 20.97-1.3.25-2.63.38-4 .38s-2.7-.13-4-.38zM332.56 213.8c-9.88-1.87-17.36-10.55-17.36-20.97 0-11.8 9.57-21.36 21.36-21.36s21.36 9.56 21.36 21.36c0 10.42-7.48 19.1-17.36 20.97-1.3.25-2.63.38-4 .38s-2.7-.13-4-.38zM139.77 81.58l3.06 47.52M93.82 34.06l10.47 84.21"/><path d="M372.23 81.58v.01l-3.06 47.51M418.18 34.06l-10.47 84.21"/></g><linearGradient id="a" x1="256" x2="431.75" y1="303.52" y2="303.52" gradientUnits="userSpaceOnUse"><stop offset="0"/><stop offset="1" stop-color="#FFF" stop-opacity="0"/></linearGradient><path fill="url(#a)" d="M431.75 477.94H256V333.29c46.63 0 84.56-37.93 84.56-84.56V213.8c9.88-1.87 17.36-10.55 17.36-20.97 0-11.8-9.57-21.36-21.36-21.36s-21.36 9.56-21.36 21.36c0 10.42 7.48 19.1 17.36 20.97v34.93c0 42.22-34.35 76.56-76.56 76.56V129.1h162.18l13.57 348.84z" opacity=".1"/></svg>