<svg xmlns="http://www.w3.org/2000/svg" width="128" height="128" fill-rule="evenodd" clip-rule="evenodd" image-rendering="optimizeQuality" shape-rendering="geometricPrecision" text-rendering="geometricPrecision" viewBox="0 0 16583 16583"><circle cx="8292" cy="8292" r="8292" fill="#00dcab"/><path fill="#00c69a" d="M15084 13047c-1500,2138 -3983,3536 -6792,3536 -2810,0 -5293,-1398 -6793,-3536l13585 0z"/><polygon fill="#ffc42e" points="3197 5229 13386 5229 13386 11921 3197 11921"/><path fill="#f5f5f5" d="M3317 3287l9949 0c285,0 518,209 518,465l0 1477 -10985 0 0 -1477c0,-256 233,-465 518,-465z"/><polygon fill="#f5f5f5" points="2582 13047 8879 13047 8879 11574 2582 11574"/><polygon fill="#fff" points="14001 13047 12107 13047 12107 11574 14001 11574"/><polygon fill="#f2b22e" points="3197 6516 13386 6516 13386 9629 3197 7438"/><polygon fill="#fff" points="8879 6827 12107 6827 12107 11921 8879 11921"/><polygon fill="#e3e7f2" points="8879 6827 12107 6827 12107 9354 8879 8660"/><polygon fill="#73ccff" points="9291 7296 11695 7296 11695 11451 9291 11451"/><polygon fill="#53b4ed" points="9291 7296 11695 7296 11695 9265 9291 8748"/><polygon fill="#fff" points="3882 7570 7778 7570 7778 10575 3882 10575"/><polygon fill="#e3e7f2" points="7778 7570 7778 8411 3882 7574"/><polygon fill="#73ccff" points="4214 7850 7446 7850 7446 10295 4214 10295"/><polygon fill="#53b4ed" points="5167 7850 7446 7850 7446 8360"/><path fill="#e9ebee" d="M6297 6468l1330 0c0,1157 -1330,1157 -1330,0z"/><polygon fill="#53b4ed" points="4214 9365 7446 9365 7446 9221 4214 9221"/><path fill="#f45e70" d="M6297 6468l-1330 0c0,1157 1330,1157 1330,0z"/><polygon fill="#fff" points="3882 8924 7778 8924 7778 9221 3882 9221"/><path fill="#f45e70" d="M2335 6468l1302 0c0,1140 -1291,1157 -1328,49l26 -49z"/><polygon fill="#fff" points="6487 5229 7627 5229 7627 6516 6297 6516"/><path fill="#f45e70" d="M8956 6468l-1329 0c0,1157 1329,1157 1329,0z"/><polygon fill="#ff8795" points="8956 5229 7627 5229 7627 6516 8956 6516"/><path fill="#e9ebee" d="M3637 6468l1330 0c0,1157 -1330,1157 -1330,0z"/><polygon fill="#ff8795" points="5347 5229 6487 5229 6297 6516 4967 6516"/><polygon fill="#fff" points="4207 5229 5347 5229 4967 6516 3637 6516"/><path fill="#f45e70" d="M10286 6468l1330 0c0,1157 -1330,1157 -1330,0z"/><polygon fill="#ff8795" points="3068 5229 4207 5229 3637 6516 2308 6516"/><path fill="#f45e70" d="M14248 6468l-1302 0c0,1142 1295,1159 1329,48l-27 -48z"/><path fill="#e9ebee" d="M10286 6468l-1330 0c0 1157 1330 1157 1330 0zM12946 6468l-1330 0c0 1157 1330 1157 1330 0z"/><polygon fill="#fff" points="10096 5229 8956 5229 8956 6516 10286 6516"/><polygon fill="#ff8795" points="11236 5229 10096 5229 10286 6516 11616 6516"/><polygon fill="#fff" points="12376 5229 11236 5229 11616 6516 12946 6516"/><polygon fill="#ff8795" points="13515 5229 12376 5229 12946 6516 14275 6516"/><polygon fill="#e3e7f2" points="2799 5062 13784 5062 13784 5229 2799 5229"/><polygon fill="#53b4ed" points="9291 9366 11695 9366 11695 9222 9291 9222"/><polygon fill="#fff" points="9291 8925 11695 8925 11695 9222 9291 9222"/><polygon fill="#e3e7f2" points="10112 8925 11695 8925 11695 9222 11494 9222"/><polygon fill="#ccc" points="8879 12207 12107 12207 12107 12487 8879 12487"/><polygon fill="#ccc" points="8879 12767 12107 12767 12107 13047 8879 13047"/><polygon fill="#e3e7f2" points="2582 13047 8879 13047 8879 12847 2582 12847"/><polygon fill="#e3e7f2" points="12107 13047 14001 13047 14001 12847 12107 12847"/><polygon fill="#e3e7f2" points="8879 12230 12107 12230 12107 11921 8879 11921"/><polygon fill="#e3e7f2" points="8879 12797 12107 12797 12107 12487 8879 12487"/><polygon fill="#e3e7f2" points="8817 13047 8879 13047 8879 11574 8817 11574"/><polygon fill="#e3e7f2" points="12107 13047 12170 13047 12170 11574 12107 11574"/></svg>